<svg xmlns="http://www.w3.org/2000/svg" viewBox="0 0 100 100" preserveAspectRatio="xMidYMid" width="53" height="53" style="shape-rendering: auto; display: block; background: transparent;" xmlns:xlink="http://www.w3.org/1999/xlink"><g><g transform="rotate(0 50 50)">
  <rect fill="#ffffff" height="12" width="8" ry="0.84" rx="0.84" y="22" x="46">
    <animate repeatCount="indefinite" begin="-1.7152658662092624s" dur="1.8867924528301885s" keyTimes="0;1" values="1;0" attributeName="opacity"></animate>
  </rect>
</g><g transform="rotate(32.72727272727273 50 50)">
  <rect fill="#ffffff" height="12" width="8" ry="0.84" rx="0.84" y="22" x="46">
    <animate repeatCount="indefinite" begin="-1.5437392795883362s" dur="1.8867924528301885s" keyTimes="0;1" values="1;0" attributeName="opacity"></animate>
  </rect>
</g><g transform="rotate(65.45454545454545 50 50)">
  <rect fill="#ffffff" height="12" width="8" ry="0.84" rx="0.84" y="22" x="46">
    <animate repeatCount="indefinite" begin="-1.3722126929674099s" dur="1.8867924528301885s" keyTimes="0;1" values="1;0" attributeName="opacity"></animate>
  </rect>
</g><g transform="rotate(98.18181818181819 50 50)">
  <rect fill="#ffffff" height="12" width="8" ry="0.84" rx="0.84" y="22" x="46">
    <animate repeatCount="indefinite" begin="-1.2006861063464838s" dur="1.8867924528301885s" keyTimes="0;1" values="1;0" attributeName="opacity"></animate>
  </rect>
</g><g transform="rotate(130.9090909090909 50 50)">
  <rect fill="#ffffff" height="12" width="8" ry="0.84" rx="0.84" y="22" x="46">
    <animate repeatCount="indefinite" begin="-1.0291595197255574s" dur="1.8867924528301885s" keyTimes="0;1" values="1;0" attributeName="opacity"></animate>
  </rect>
</g><g transform="rotate(163.63636363636363 50 50)">
  <rect fill="#ffffff" height="12" width="8" ry="0.84" rx="0.84" y="22" x="46">
    <animate repeatCount="indefinite" begin="-0.8576329331046312s" dur="1.8867924528301885s" keyTimes="0;1" values="1;0" attributeName="opacity"></animate>
  </rect>
</g><g transform="rotate(196.36363636363637 50 50)">
  <rect fill="#ffffff" height="12" width="8" ry="0.84" rx="0.84" y="22" x="46">
    <animate repeatCount="indefinite" begin="-0.6861063464837049s" dur="1.8867924528301885s" keyTimes="0;1" values="1;0" attributeName="opacity"></animate>
  </rect>
</g><g transform="rotate(229.0909090909091 50 50)">
  <rect fill="#ffffff" height="12" width="8" ry="0.84" rx="0.84" y="22" x="46">
    <animate repeatCount="indefinite" begin="-0.5145797598627787s" dur="1.8867924528301885s" keyTimes="0;1" values="1;0" attributeName="opacity"></animate>
  </rect>
</g><g transform="rotate(261.8181818181818 50 50)">
  <rect fill="#ffffff" height="12" width="8" ry="0.84" rx="0.84" y="22" x="46">
    <animate repeatCount="indefinite" begin="-0.34305317324185247s" dur="1.8867924528301885s" keyTimes="0;1" values="1;0" attributeName="opacity"></animate>
  </rect>
</g><g transform="rotate(294.54545454545456 50 50)">
  <rect fill="#ffffff" height="12" width="8" ry="0.84" rx="0.84" y="22" x="46">
    <animate repeatCount="indefinite" begin="-0.17152658662092624s" dur="1.8867924528301885s" keyTimes="0;1" values="1;0" attributeName="opacity"></animate>
  </rect>
</g><g transform="rotate(327.27272727272725 50 50)">
  <rect fill="#ffffff" height="12" width="8" ry="0.84" rx="0.84" y="22" x="46">
    <animate repeatCount="indefinite" begin="0s" dur="1.8867924528301885s" keyTimes="0;1" values="1;0" attributeName="opacity"></animate>
  </rect>
</g><g></g></g><!-- [ldio] generated by https://loading.io --></svg>